<?xml version="1.0" encoding="utf-8"?>
<!-- Generator: Adobe Illustrator 24.2.3, SVG Export Plug-In . SVG Version: 6.00 Build 0)  -->
<svg version="1.1" id="Layer_1" xmlns="http://www.w3.org/2000/svg" xmlns:xlink="http://www.w3.org/1999/xlink" x="0px" y="0px"
	 viewBox="0 0 128 128" style="enable-background:new 0 0 128 128;" xml:space="preserve">
<style type="text/css">
	.st0{fill:#4C4C4C;}
	.st1{fill:#66CCCC;}
	.st2{fill:#000033;}
</style>
<rect y="0" class="st0" width="128" height="128"/>
<g>
	<path class="st1" d="M82.5,90.5c-10.2,10.2-26.9,10.2-37.1,0c-10.2-10.2-10.2-26.9,0-37.1L64,34.9l18.5,18.5
		C92.8,63.7,92.8,80.3,82.5,90.5z"/>
	<g>
		<path class="st2" d="M83.8,52.1L64.6,33c-0.4-0.4-0.9-0.4-1.3,0L44.2,52.1c-10.9,10.9-10.9,28.7,0,39.7c5.5,5.5,12.6,8.2,19.8,8.2
			c3.6,0,7.2-0.7,10.6-2c3.4-1.4,6.5-3.4,9.3-6.1C94.8,80.9,94.8,63.1,83.8,52.1z M82.5,90.5c-10.2,10.2-26.9,10.2-37.1,0
			c-10.2-10.2-10.2-26.9,0-37.1L64,34.9l18.5,18.5C92.8,63.7,92.8,80.3,82.5,90.5z"/>
		<path class="st2" d="M88.2,54c-0.2,0-0.5-0.1-0.6-0.3L64,30.2L40.4,53.8c-0.4,0.4-0.9,0.4-1.3,0c-0.4-0.4-0.4-0.9,0-1.3l24.2-24.2
			c0.4-0.4,0.9-0.4,1.3,0l24.2,24.2c0.4,0.4,0.4,0.9,0,1.3C88.7,54,88.5,54,88.2,54z"/>
	</g>
</g>
</svg>
